<svg id="visual" viewBox="0 0 900 600" width="900" height="600" xmlns="http://www.w3.org/2000/svg" xmlns:xlink="http://www.w3.org/1999/xlink" version="1.1"><g stroke-width="1" stroke-linejoin="bevel"><path d="M503 338L515 437L601 437Z" fill="#297ea6" stroke="#297ea6"></path><path d="M601 437L631 272L503 338Z" fill="#1d4e6b" stroke="#1d4e6b"></path><path d="M373 386L471 486L515 437Z" fill="#246688" stroke="#246688"></path><path d="M515 437L608 508L601 437Z" fill="#00101c" stroke="#00101c"></path><path d="M471 486L608 508L515 437Z" fill="#15384f" stroke="#15384f"></path><path d="M601 437L662 280L631 272Z" fill="#297ea6" stroke="#297ea6"></path><path d="M608 508L692 436L601 437Z" fill="#297ea6" stroke="#297ea6"></path><path d="M692 436L662 280L601 437Z" fill="#297ea6" stroke="#297ea6"></path><path d="M708 187L591 233L631 272Z" fill="#1d4e6b" stroke="#1d4e6b"></path><path d="M631 272L591 233L503 338Z" fill="#00101c" stroke="#00101c"></path><path d="M386 265L373 386L503 338Z" fill="#277297" stroke="#277297"></path><path d="M503 338L373 386L515 437Z" fill="#246688" stroke="#246688"></path><path d="M373 386L415 501L471 486Z" fill="#277297" stroke="#277297"></path><path d="M502 600L580 600L608 508Z" fill="#246688" stroke="#246688"></path><path d="M608 508L693 519L692 436Z" fill="#0c2435" stroke="#0c2435"></path><path d="M687 600L693 519L608 508Z" fill="#277297" stroke="#277297"></path><path d="M465 160L386 265L503 338Z" fill="#00101c" stroke="#00101c"></path><path d="M502 600L608 508L471 486Z" fill="#205a7a" stroke="#205a7a"></path><path d="M822 483L779 410L692 436Z" fill="#15384f" stroke="#15384f"></path><path d="M692 436L780 324L662 280Z" fill="#00101c" stroke="#00101c"></path><path d="M423 600L502 600L471 486Z" fill="#112e42" stroke="#112e42"></path><path d="M779 410L780 324L692 436Z" fill="#0c2435" stroke="#0c2435"></path><path d="M662 280L708 187L631 272Z" fill="#297ea6" stroke="#297ea6"></path><path d="M386 265L334 298L373 386Z" fill="#1d4e6b" stroke="#1d4e6b"></path><path d="M373 386L323 433L415 501Z" fill="#00101c" stroke="#00101c"></path><path d="M530 109L465 160L591 233Z" fill="#246688" stroke="#246688"></path><path d="M591 233L465 160L503 338Z" fill="#081a28" stroke="#081a28"></path><path d="M386 265L298 230L334 298Z" fill="#246688" stroke="#246688"></path><path d="M334 298L323 433L373 386Z" fill="#205a7a" stroke="#205a7a"></path><path d="M415 501L423 600L471 486Z" fill="#1d4e6b" stroke="#1d4e6b"></path><path d="M780 324L708 187L662 280Z" fill="#297ea6" stroke="#297ea6"></path><path d="M580 600L687 600L608 508Z" fill="#112e42" stroke="#112e42"></path><path d="M693 519L822 483L692 436Z" fill="#297ea6" stroke="#297ea6"></path><path d="M306 600L423 600L415 501Z" fill="#246688" stroke="#246688"></path><path d="M585 102L530 109L591 233Z" fill="#1d4e6b" stroke="#1d4e6b"></path><path d="M430 99L376 172L465 160Z" fill="#112e42" stroke="#112e42"></path><path d="M465 160L376 172L386 265Z" fill="#297ea6" stroke="#297ea6"></path><path d="M205 412L292 462L323 433Z" fill="#081a28" stroke="#081a28"></path><path d="M323 433L292 462L415 501Z" fill="#277297" stroke="#277297"></path><path d="M708 187L585 102L591 233Z" fill="#297ea6" stroke="#297ea6"></path><path d="M765 600L822 483L693 519Z" fill="#297ea6" stroke="#297ea6"></path><path d="M779 410L900 439L780 324Z" fill="#081a28" stroke="#081a28"></path><path d="M687 600L765 600L693 519Z" fill="#205a7a" stroke="#205a7a"></path><path d="M376 172L298 230L386 265Z" fill="#246688" stroke="#246688"></path><path d="M334 298L205 412L323 433Z" fill="#15384f" stroke="#15384f"></path><path d="M786 85L704 117L708 187Z" fill="#277297" stroke="#277297"></path><path d="M708 187L704 117L585 102Z" fill="#297ea6" stroke="#297ea6"></path><path d="M530 109L430 99L465 160Z" fill="#277297" stroke="#277297"></path><path d="M376 172L299 83L298 230Z" fill="#112e42" stroke="#112e42"></path><path d="M495 0L430 99L530 109Z" fill="#277297" stroke="#277297"></path><path d="M292 462L306 600L415 501Z" fill="#246688" stroke="#246688"></path><path d="M780 324L832 182L708 187Z" fill="#00101c" stroke="#00101c"></path><path d="M900 264L832 182L780 324Z" fill="#19435d" stroke="#19435d"></path><path d="M900 522L900 439L822 483Z" fill="#19435d" stroke="#19435d"></path><path d="M822 483L900 439L779 410Z" fill="#1d4e6b" stroke="#1d4e6b"></path><path d="M190 326L205 412L334 298Z" fill="#15384f" stroke="#15384f"></path><path d="M292 462L190 479L306 600Z" fill="#112e42" stroke="#112e42"></path><path d="M900 439L900 264L780 324Z" fill="#112e42" stroke="#112e42"></path><path d="M765 600L900 522L822 483Z" fill="#0c2435" stroke="#0c2435"></path><path d="M177 220L190 326L298 230Z" fill="#15384f" stroke="#15384f"></path><path d="M298 230L190 326L334 298Z" fill="#112e42" stroke="#112e42"></path><path d="M900 62L786 85L832 182Z" fill="#0c2435" stroke="#0c2435"></path><path d="M832 182L786 85L708 187Z" fill="#081a28" stroke="#081a28"></path><path d="M681 0L600 0L585 102Z" fill="#297ea6" stroke="#297ea6"></path><path d="M585 102L600 0L530 109Z" fill="#00101c" stroke="#00101c"></path><path d="M112 461L190 479L205 412Z" fill="#297ea6" stroke="#297ea6"></path><path d="M205 412L190 479L292 462Z" fill="#297ea6" stroke="#297ea6"></path><path d="M681 0L585 102L704 117Z" fill="#277297" stroke="#277297"></path><path d="M600 0L495 0L530 109Z" fill="#1d4e6b" stroke="#1d4e6b"></path><path d="M430 99L299 83L376 172Z" fill="#15384f" stroke="#15384f"></path><path d="M429 0L299 83L430 99Z" fill="#277297" stroke="#277297"></path><path d="M786 85L681 0L704 117Z" fill="#277297" stroke="#277297"></path><path d="M900 264L900 170L832 182Z" fill="#081a28" stroke="#081a28"></path><path d="M786 85L792 0L681 0Z" fill="#277297" stroke="#277297"></path><path d="M495 0L429 0L430 99Z" fill="#00101c" stroke="#00101c"></path><path d="M765 600L900 600L900 522Z" fill="#19435d" stroke="#19435d"></path><path d="M227 70L177 220L298 230Z" fill="#246688" stroke="#246688"></path><path d="M88 373L112 461L205 412Z" fill="#15384f" stroke="#15384f"></path><path d="M88 600L187 600L190 479Z" fill="#19435d" stroke="#19435d"></path><path d="M190 479L187 600L306 600Z" fill="#297ea6" stroke="#297ea6"></path><path d="M900 62L792 0L786 85Z" fill="#15384f" stroke="#15384f"></path><path d="M88 373L205 412L190 326Z" fill="#246688" stroke="#246688"></path><path d="M301 0L227 70L299 83Z" fill="#00101c" stroke="#00101c"></path><path d="M299 83L227 70L298 230Z" fill="#246688" stroke="#246688"></path><path d="M429 0L301 0L299 83Z" fill="#19435d" stroke="#19435d"></path><path d="M900 170L900 62L832 182Z" fill="#277297" stroke="#277297"></path><path d="M68 336L190 326L177 220Z" fill="#081a28" stroke="#081a28"></path><path d="M68 336L88 373L190 326Z" fill="#246688" stroke="#246688"></path><path d="M122 92L104 194L177 220Z" fill="#0c2435" stroke="#0c2435"></path><path d="M104 194L68 336L177 220Z" fill="#15384f" stroke="#15384f"></path><path d="M0 472L88 600L112 461Z" fill="#00101c" stroke="#00101c"></path><path d="M900 62L900 0L792 0Z" fill="#277297" stroke="#277297"></path><path d="M0 472L112 461L88 373Z" fill="#15384f" stroke="#15384f"></path><path d="M112 461L88 600L190 479Z" fill="#205a7a" stroke="#205a7a"></path><path d="M0 319L0 387L68 336Z" fill="#112e42" stroke="#112e42"></path><path d="M227 70L122 92L177 220Z" fill="#0c2435" stroke="#0c2435"></path><path d="M183 0L122 92L227 70Z" fill="#081a28" stroke="#081a28"></path><path d="M301 0L183 0L227 70Z" fill="#081a28" stroke="#081a28"></path><path d="M68 336L0 387L88 373Z" fill="#081a28" stroke="#081a28"></path><path d="M0 319L68 336L0 198Z" fill="#15384f" stroke="#15384f"></path><path d="M0 198L68 336L104 194Z" fill="#081a28" stroke="#081a28"></path><path d="M0 387L0 472L88 373Z" fill="#081a28" stroke="#081a28"></path><path d="M183 0L137 0L122 92Z" fill="#205a7a" stroke="#205a7a"></path><path d="M0 75L0 198L104 194Z" fill="#19435d" stroke="#19435d"></path><path d="M0 75L104 194L122 92Z" fill="#15384f" stroke="#15384f"></path><path d="M0 472L0 600L88 600Z" fill="#15384f" stroke="#15384f"></path><path d="M0 0L0 75L122 92Z" fill="#112e42" stroke="#112e42"></path><path d="M137 0L0 0L122 92Z" fill="#205a7a" stroke="#205a7a"></path></g></svg>